<svg xmlns="http://www.w3.org/2000/svg" width="117" height="48" fill="none"><path fill="#1A9CD6" d="M9.28 36.512c-1.387 0-2.603-.224-3.648-.672-1.024-.448-1.888-1.056-2.592-1.824a8.666 8.666 0 0 1-1.568-2.624 9.189 9.189 0 0 1-.512-3.04c0-1.536.352-2.901 1.056-4.096a7.542 7.542 0 0 1 2.912-2.816c1.259-.683 2.699-1.024 4.32-1.024 1.152 0 2.165.181 3.04.544.875.363 1.6.843 2.176 1.44a5.814 5.814 0 0 1 1.344 1.92c.32.704.48 1.387.48 2.048 0 1.13-.277 1.952-.832 2.464-.533.512-1.205.768-2.016.768H4.992c.021.725.245 1.355.672 1.888.448.533 1.003.95 1.664 1.248a5.483 5.483 0 0 0 2.08.416c.533 0 1.003-.032 1.408-.096.427-.064.79-.139 1.088-.224.299-.107.555-.213.768-.32.235-.107.448-.203.64-.288a1.94 1.94 0 0 1 .544-.16c.235-.021.47.032.704.16.235.128.427.352.576.672.128.213.213.416.256.608.064.17.096.341.096.512 0 .427-.256.832-.768 1.216-.512.363-1.237.661-2.176.896-.917.256-2.005.384-3.264.384Zm-4.288-9.184h6.56c.363 0 .64-.053.832-.16.192-.128.288-.384.288-.768 0-.49-.15-.928-.448-1.312a2.817 2.817 0 0 0-1.216-.928c-.512-.235-1.11-.352-1.792-.352-.79 0-1.504.16-2.144.48a3.864 3.864 0 0 0-1.536 1.248 3.115 3.115 0 0 0-.544 1.792Zm20.386 8.768a6.85 6.85 0 0 1-2.784-.576 7.214 7.214 0 0 1-2.304-1.6 7.965 7.965 0 0 1-1.568-2.464c-.384-.939-.576-1.963-.576-3.072 0-1.088.192-2.101.576-3.04a8.274 8.274 0 0 1 1.568-2.528 7.541 7.541 0 0 1 2.336-1.696 6.47 6.47 0 0 1 2.752-.608c1.024 0 1.941.203 2.752.608.81.405 1.493.96 2.048 1.664.576.704 1.013 1.536 1.312 2.496.299.939.459 1.952.48 3.04 0 1.088-.15 2.101-.448 3.04a7.289 7.289 0 0 1-1.28 2.496 5.894 5.894 0 0 1-2.08 1.664c-.81.384-1.739.576-2.784.576Zm.512-3.584c.725 0 1.387-.17 1.984-.512a3.889 3.889 0 0 0 1.408-1.472c.363-.64.544-1.355.544-2.144 0-.81-.181-1.515-.544-2.112a3.889 3.889 0 0 0-1.408-1.472c-.576-.363-1.237-.544-1.984-.544-.747 0-1.419.181-2.016.544a3.886 3.886 0 0 0-1.44 1.44c-.341.619-.512 1.333-.512 2.144 0 .79.17 1.504.512 2.144.363.619.843 1.11 1.44 1.472.619.341 1.29.512 2.016.512Zm5.888 10.24c-.597 0-1.035-.085-1.312-.256a1.065 1.065 0 0 1-.512-.704 4.296 4.296 0 0 1-.096-.96V21.664c.085-.277.203-.49.352-.64.17-.17.384-.288.64-.352a3.27 3.27 0 0 1 .96-.128c.576 0 .992.096 1.248.288.277.17.448.395.512.672s.096.597.096.96v18.4c0 .363-.032.683-.096.96-.064.277-.235.501-.512.672-.256.17-.683.256-1.28.256Zm11.57-6.464c-.981 0-1.888-.17-2.72-.512a6.605 6.605 0 0 1-2.144-1.536 6.986 6.986 0 0 1-1.44-2.368c-.341-.917-.512-1.93-.512-3.04v-6.368c0-.363.032-.683.096-.96.064-.299.235-.533.512-.704.278-.17.704-.256 1.28-.256.619 0 1.056.085 1.312.256.278.17.448.405.512.704.064.299.096.63.096.992v6.336c0 .768.128 1.43.384 1.984.278.555.672.992 1.184 1.312.512.299 1.142.448 1.888.448.768 0 1.419-.15 1.952-.448.555-.32.982-.757 1.28-1.312.299-.576.448-1.237.448-1.984v-6.4c0-.363.032-.683.096-.96a.963.963 0 0 1 .512-.672c.278-.17.715-.256 1.312-.256.598 0 1.024.085 1.28.256.256.17.416.405.48.704.086.299.128.619.128.96v12c0 .32-.042.619-.128.896-.064.277-.234.501-.512.672-.256.17-.682.256-1.28.256-.426 0-.768-.053-1.024-.16a1.269 1.269 0 0 1-.544-.352 1.782 1.782 0 0 1-.224-.512 4.111 4.111 0 0 1-.032-.512l.256-.864a6.04 6.04 0 0 1-.576.704 7.914 7.914 0 0 1-.96.8 5.13 5.13 0 0 1-1.28.64c-.49.17-1.034.256-1.632.256Zm24.217-.032c-.618 0-1.077-.117-1.376-.352-.298-.235-.448-.555-.448-.96l.224-1.056c-.17.277-.458.608-.864.992-.405.363-.938.693-1.6.992-.661.277-1.461.416-2.4.416a6.83 6.83 0 0 1-2.848-.608 8.01 8.01 0 0 1-2.336-1.728 9.41 9.41 0 0 1-1.6-2.528 8.194 8.194 0 0 1-.576-3.072c0-1.045.192-2.027.576-2.944a8.56 8.56 0 0 1 1.632-2.496 7.54 7.54 0 0 1 2.336-1.696 6.472 6.472 0 0 1 2.816-.64c.875 0 1.61.117 2.208.352.619.235 1.142.533 1.568.896a5.62 5.62 0 0 1 1.056 1.088l-.192-.928c0-.47.15-.821.448-1.056.299-.256.768-.384 1.408-.384.598 0 1.024.096 1.28.288.256.17.416.416.48.736.064.299.096.64.096 1.024v11.712c0 .363-.032.693-.096.992a1.065 1.065 0 0 1-.512.704c-.256.17-.682.256-1.28.256Zm-5.888-3.712c.726 0 1.376-.181 1.952-.544a3.974 3.974 0 0 0 1.376-1.472 4.21 4.21 0 0 0 .544-2.112c0-.832-.181-1.557-.544-2.176a3.886 3.886 0 0 0-1.44-1.44 3.586 3.586 0 0 0-1.952-.544c-.79 0-1.493.192-2.112.576a3.986 3.986 0 0 0-1.472 1.504c-.341.619-.512 1.323-.512 2.112A4.036 4.036 0 0 0 59.533 32c.64.363 1.355.544 2.144.544Zm16.491 3.776c-.79 0-1.493-.053-2.112-.16a4.86 4.86 0 0 1-1.568-.544 3.226 3.226 0 0 1-1.056-1.024c-.277-.448-.49-.992-.64-1.632-.128-.64-.192-1.408-.192-2.304V15.232c0-.363.032-.683.096-.96.085-.299.256-.533.512-.704.277-.192.715-.288 1.312-.288.597 0 1.024.085 1.28.256.277.17.448.405.512.704.085.277.128.597.128.96v15.296c0 .405.021.747.064 1.024.064.256.16.47.288.64.15.15.33.256.544.32.235.064.512.096.832.096.277 0 .523.032.736.096.235.064.416.224.544.48.15.256.224.672.224 1.248 0 .597-.075 1.035-.224 1.312-.128.277-.31.448-.544.512-.235.064-.48.096-.736.096Z"/><path fill="#374246" d="M95.784 36.256c-.619 0-1.077-.117-1.376-.352-.299-.235-.448-.555-.448-.96l.224-1.056c-.17.277-.459.608-.864.992-.405.363-.939.693-1.6.992-.661.277-1.461.416-2.4.416a6.83 6.83 0 0 1-2.848-.608 8.01 8.01 0 0 1-2.336-1.728 9.413 9.413 0 0 1-1.6-2.528 8.194 8.194 0 0 1-.576-3.072c0-1.045.192-2.027.576-2.944a8.56 8.56 0 0 1 1.632-2.496 7.541 7.541 0 0 1 2.336-1.696 6.472 6.472 0 0 1 2.816-.64c.875 0 1.61.117 2.208.352.619.235 1.141.533 1.568.896.427.341.779.704 1.056 1.088l-.192-.928c0-.47.15-.821.448-1.056.299-.256.768-.384 1.408-.384.597 0 1.024.096 1.28.288.256.17.416.416.48.736.064.299.096.64.096 1.024v11.712c0 .363-.032.693-.096.992a1.065 1.065 0 0 1-.512.704c-.256.17-.683.256-1.28.256Zm-5.888-3.712c.725 0 1.376-.181 1.952-.544a3.973 3.973 0 0 0 1.376-1.472 4.21 4.21 0 0 0 .544-2.112c0-.832-.181-1.557-.544-2.176a3.886 3.886 0 0 0-1.44-1.44 3.586 3.586 0 0 0-1.952-.544c-.79 0-1.493.192-2.112.576a3.987 3.987 0 0 0-1.472 1.504c-.341.619-.512 1.323-.512 2.112A4.036 4.036 0 0 0 87.752 32c.64.363 1.355.544 2.144.544Zm24.043 3.744a8.326 8.326 0 0 1-2.016-.224 5.011 5.011 0 0 1-1.536-.672 4.41 4.41 0 0 1-1.12-1.152 4.963 4.963 0 0 1-.672-1.568 8.695 8.695 0 0 1-.224-2.048V15.2c0-.363.032-.683.096-.96.064-.299.234-.533.512-.704.277-.17.714-.256 1.312-.256.576 0 1.002.085 1.28.256.277.17.448.405.512.704.085.277.128.587.128.928V30.72c0 .299.032.555.096.768.064.213.16.395.288.544.149.15.33.256.544.32.234.064.501.096.8.096.49 0 .874.064 1.152.192.277.128.48.33.608.608.128.277.192.65.192 1.12 0 .448-.075.821-.224 1.12-.128.277-.342.48-.64.608-.278.128-.64.192-1.088.192Zm-8.096 0a7.273 7.273 0 0 1-1.888-.224 3.853 3.853 0 0 1-1.44-.64 3.954 3.954 0 0 1-1.024-1.12 5.442 5.442 0 0 1-.576-1.568 10.483 10.483 0 0 1-.192-2.112V15.2c0-.363.032-.683.096-.96.064-.299.234-.533.512-.704.277-.17.704-.256 1.28-.256.597 0 1.024.085 1.28.256.277.17.448.405.512.704.085.277.128.587.128.928V30.72c0 .405.053.736.16.992.128.256.288.448.48.576.192.107.416.16.672.16.405 0 .725.064.96.192.234.128.394.33.48.608.106.277.16.65.16 1.12 0 .448-.054.821-.16 1.12-.107.277-.278.48-.512.608-.235.128-.544.192-.928.192Z"/></svg>